<svg width="29" height="29" viewBox="0 0 29 29" fill="none" xmlns="http://www.w3.org/2000/svg">
<path d="M17.747 6.70752C18.968 6.94573 20.09 7.54284 20.9696 8.42244C21.8492 9.30204 22.4463 10.4241 22.6845 11.645L17.747 6.70752ZM17.747 1.70752C20.2836 1.98931 22.649 3.12524 24.4549 4.92878C26.2607 6.73232 27.3996 9.09628 27.6846 11.6325L17.747 1.70752ZM26.4346 21.6075V25.3575C26.436 25.7056 26.3647 26.0502 26.2252 26.3692C26.0857 26.6882 25.8812 26.9745 25.6246 27.2099C25.3681 27.4452 25.0653 27.6244 24.7355 27.7359C24.4057 27.8474 24.0563 27.8889 23.7095 27.8575C19.8631 27.4396 16.1683 26.1252 12.922 24.02C9.90183 22.1008 7.34122 19.5402 5.42205 16.52C3.30952 13.259 1.99485 9.54626 1.58455 5.68252C1.55331 5.33685 1.59439 4.98847 1.70517 4.65955C1.81596 4.33063 1.99401 4.02838 2.22801 3.77205C2.462 3.51571 2.7468 3.31091 3.06429 3.17067C3.38177 3.03044 3.72497 2.95785 4.07205 2.95752H7.82205C8.42868 2.95155 9.01679 3.16637 9.47675 3.56194C9.93671 3.9575 10.2371 4.50683 10.322 5.10752C10.4803 6.3076 10.7739 7.48593 11.197 8.62002C11.3652 9.06742 11.4016 9.55366 11.3019 10.0211C11.2022 10.4886 10.9706 10.9177 10.6345 11.2575L9.04705 12.845C10.8265 15.9745 13.4176 18.5656 16.547 20.345L18.1345 18.7575C18.4744 18.4214 18.9035 18.1898 19.3709 18.0901C19.8384 17.9904 20.3246 18.0268 20.772 18.195C21.9061 18.6182 23.0845 18.9117 24.2846 19.07C24.8918 19.1557 25.4463 19.4615 25.8427 19.9294C26.2391 20.3972 26.4498 20.9945 26.4346 21.6075Z" stroke="#486A6F" stroke-width="2" stroke-linecap="round" stroke-linejoin="round"/>
</svg>
