<svg width="23" height="23" viewBox="0 0 23 23" fill="none" xmlns="http://www.w3.org/2000/svg">
<path d="M17.4346 5.95752H17.4446M6.93457 1.45752H16.9346C19.696 1.45752 21.9346 3.6961 21.9346 6.45752V16.4575C21.9346 19.2189 19.696 21.4575 16.9346 21.4575H6.93457C4.17315 21.4575 1.93457 19.2189 1.93457 16.4575V6.45752C1.93457 3.6961 4.17315 1.45752 6.93457 1.45752ZM15.9346 10.8275C16.058 11.6598 15.9158 12.5097 15.5283 13.2565C15.1408 14.0033 14.5277 14.6089 13.7762 14.9872C13.0247 15.3655 12.173 15.4971 11.3424 15.3635C10.5117 15.2298 9.74433 14.8376 9.14941 14.2427C8.55449 13.6478 8.1623 12.8804 8.02864 12.0497C7.89497 11.2191 8.02664 10.3674 8.4049 9.61589C8.78316 8.86437 9.38876 8.25126 10.1356 7.86376C10.8824 7.47626 11.7323 7.33411 12.5646 7.45752C13.4135 7.5834 14.1994 7.97898 14.8063 8.58583C15.4131 9.19267 15.8087 9.9786 15.9346 10.8275Z" stroke="#F4F7FF" stroke-width="2" stroke-linecap="round" stroke-linejoin="round"/>
</svg>
