<svg width="120" height="32" viewBox="0 0 120 32" fill="none" xmlns="http://www.w3.org/2000/svg">
<path d="M23.3645 0.463501C25.0433 0.463501 26.3864 1.80037 26.3864 3.44361C26.3864 5.08684 25.0433 6.42371 23.3645 6.42371C21.7417 6.42371 20.3987 5.08684 20.3987 3.44361C20.4267 1.80037 21.7697 0.463501 23.3645 0.463501Z" fill="#A5410F"/>
<path d="M25.9386 8.51257H20.8463V25.112H25.9386V8.51257Z" fill="#A5410F"/>
<path d="M40.628 8.5126V10.2951C40.1524 9.40385 38.7254 8.20624 35.9834 8.20624C31.4227 8.20624 28.233 11.9662 28.233 16.3389C28.233 20.9344 31.5626 24.4158 35.9834 24.4158C38.4176 24.4158 39.8446 23.441 40.4602 22.5497V23.3017C40.4602 26.3097 38.8933 27.563 36.3192 27.563C34.6963 27.563 33.4652 26.6996 32.9616 25.4463C32.9056 25.3349 32.8497 25.2235 32.8217 25.1121H28.149C28.149 25.1121 28.149 25.5855 28.233 26.059C28.7926 28.9834 31.7584 31.9635 36.571 31.9635C42.8105 31.9635 45.4965 27.8137 45.4965 23.0511V8.5126H40.628ZM36.9347 20.0153C34.8922 20.0153 33.3533 18.5948 33.3533 16.3389C33.3533 14.055 35.0321 12.6625 36.9347 12.6625C38.8373 12.6625 40.4881 14.055 40.4881 16.3389C40.4881 18.5948 39.0052 20.0153 36.9347 20.0153Z" fill="#A5410F"/>
<path d="M50.7568 0.463501C52.4355 0.463501 53.7786 1.80037 53.7786 3.44361C53.7786 5.08684 52.4355 6.42371 50.7568 6.42371C49.1339 6.42371 47.7909 5.08684 47.7909 3.44361C47.7909 1.80037 49.1339 0.463501 50.7568 0.463501Z" fill="#A5410F"/>
<path d="M53.3308 8.51257H48.2385V25.112H53.3308V8.51257Z" fill="#A5410F"/>
<path d="M17.6566 0.937012H12.6202V9.82163C12.2005 9.18104 10.9694 8.12269 8.11547 8.12269C3.38688 8.12269 0.0292969 11.8269 0.0292969 16.7566C0.0292969 21.8813 3.58273 25.4741 8.28334 25.4741C10.2979 25.4741 11.9767 24.6386 12.7601 23.5245V25.1121H17.6566V0.937012ZM8.92688 20.9344C6.94031 20.9344 5.17758 19.5418 5.17758 16.7845C5.17758 14.0272 6.94031 12.6903 8.92688 12.6903C10.9134 12.6903 12.6762 14.0272 12.6762 16.7845C12.6762 19.5418 10.9134 20.9344 8.92688 20.9344Z" fill="#A5410F"/>
<path d="M108.955 15.5311L112.872 14.9184C113.767 14.7791 114.075 14.3614 114.075 13.7765C114.075 12.8017 113.236 11.9661 111.613 11.9661C109.822 11.9661 108.871 13.1638 108.759 14.4171L104.338 13.5258C104.534 11.1584 106.744 8.01123 111.641 8.01123C117.041 8.01123 119.027 11.0192 119.027 14.4171V22.5218C119.027 23.8309 119.195 24.9171 119.223 25.0842H114.635C114.607 24.9449 114.467 24.36 114.467 23.2181C113.599 24.6107 111.977 25.5577 109.766 25.5577C106.101 25.5577 104.002 23.1624 104.002 20.5165C104.03 17.5921 106.213 15.921 108.955 15.5311ZM114.103 18.5948V17.8706L110.941 18.372C109.878 18.5391 109.067 19.0404 109.067 20.2102C109.067 21.0736 109.626 21.9091 111.053 21.9091C112.564 21.9091 114.103 21.185 114.103 18.5948Z" fill="#506269"/>
<path d="M79.7159 0.463501C81.3946 0.463501 82.7377 1.80037 82.7377 3.44361C82.7377 5.08684 81.3946 6.42371 79.7159 6.42371C78.093 6.42371 76.75 5.08684 76.75 3.44361C76.75 1.80037 78.093 0.463501 79.7159 0.463501Z" fill="#506269"/>
<path d="M82.2901 8.51257H77.1978V25.112H82.2901V8.51257Z" fill="#506269"/>
<path d="M96.9794 8.5126V10.2951C96.5037 9.40385 95.0767 8.20624 92.3347 8.20624C87.774 8.20624 84.5843 11.9662 84.5843 16.3389C84.5843 20.9344 87.9139 24.4158 92.3347 24.4158C94.769 24.4158 96.1959 23.441 96.8115 22.5497V23.3017C96.8115 26.3097 95.2446 27.563 92.6705 27.563C91.0476 27.563 89.8165 26.6996 89.3129 25.4463C89.2569 25.3349 89.201 25.2235 89.173 25.1121H84.5004C84.5004 25.1121 84.5004 25.5855 84.5843 26.059C85.1439 28.9834 88.1098 31.9635 92.9223 31.9635C99.1618 31.9635 101.848 27.8137 101.848 23.0511V8.5126H96.9794ZM93.286 20.0153C91.2435 20.0153 89.7046 18.5948 89.7046 16.3389C89.7046 14.055 91.3834 12.6625 93.286 12.6625C95.1887 12.6625 96.8395 14.055 96.8395 16.3389C96.8395 18.5948 95.3565 20.0153 93.286 20.0153Z" fill="#506269"/>
<path d="M74.008 0.937012H68.9717V9.82163C68.552 9.18104 67.3209 8.12269 64.4669 8.12269C59.7383 8.12269 56.3807 11.8269 56.3807 16.7566C56.3807 21.8813 59.9342 25.4741 64.6348 25.4741C66.6493 25.4741 68.3281 24.6386 69.1116 23.5245V25.1121H74.008V0.937012ZM65.2783 20.9344C63.2918 20.9344 61.529 19.5418 61.529 16.7845C61.529 14.0272 63.2918 12.6903 65.2783 12.6903C67.2649 12.6903 69.0276 14.0272 69.0276 16.7845C69.0276 19.5418 67.2649 20.9344 65.2783 20.9344Z" fill="#506269"/>
</svg>
