<svg width="28" height="26" viewBox="0 0 28 26" fill="none" xmlns="http://www.w3.org/2000/svg">
<path d="M16.1458 7.83259V22.3309C16.1458 22.4852 16.1839 22.6371 16.2567 22.7732C16.3296 22.9093 16.4349 23.0253 16.5633 23.1109L17.8514 23.9697C17.9764 24.053 18.1196 24.1051 18.269 24.1215C18.4183 24.1379 18.5694 24.1182 18.7095 24.064C18.8496 24.0099 18.9747 23.9228 19.0741 23.8102C19.1736 23.6976 19.2445 23.5627 19.281 23.417L20.8333 17.2076M16.1458 7.83259L20.8333 7.83259C22.0765 7.83259 23.2688 8.32645 24.1479 9.20553C25.027 10.0846 25.5208 11.2769 25.5208 12.5201C25.5208 13.7633 25.027 14.9556 24.1479 15.8347C23.2688 16.7137 22.0765 17.2076 20.8333 17.2076M16.1458 7.83259C16.1458 7.83259 9.76475 7.83259 3.6242 2.68248C3.48764 2.56753 3.32109 2.49398 3.14414 2.47045C2.9672 2.44693 2.78722 2.47443 2.62536 2.5497C2.46351 2.62497 2.32652 2.7449 2.23049 2.89537C2.13447 3.04584 2.08341 3.22061 2.08331 3.39911V21.6411C2.08341 21.8196 2.13447 21.9943 2.23049 22.1448C2.32652 22.2953 2.46351 22.4152 2.62536 22.4905C2.78722 22.5658 2.9672 22.5932 3.14414 22.5697C3.32109 22.5462 3.48764 22.4726 3.6242 22.3577C9.76475 17.2076 16.1458 17.2076 16.1458 17.2076L20.8333 17.2076" stroke="#F4F7FF" stroke-width="3" stroke-linecap="round" stroke-linejoin="round"/>
</svg>
