<svg width="268" height="72" viewBox="0 0 268 72" fill="none" xmlns="http://www.w3.org/2000/svg">
<path d="M52.3185 0.949829C56.0803 0.949829 59.0898 3.94547 59.0898 7.6276C59.0898 11.3097 56.0803 14.3054 52.3185 14.3054C48.6821 14.3054 45.6727 11.3097 45.6727 7.6276C45.7354 3.94547 48.7448 0.949829 52.3185 0.949829Z" fill="#A5410F"/>
<path d="M58.0865 18.9861H46.6757V56.1819H58.0865V18.9861Z" fill="#A5410F"/>
<path d="M91.0023 18.9861V22.9803C89.9365 20.9832 86.7389 18.2996 80.5947 18.2996C70.3751 18.2996 63.2277 26.7249 63.2277 36.5231C63.2277 46.8206 70.6886 54.6217 80.5947 54.6217C86.0493 54.6217 89.2468 52.4374 90.6261 50.4403V52.1254C90.6261 58.8655 87.1151 61.674 81.347 61.674C77.7106 61.674 74.952 59.7393 73.8234 56.9309C73.698 56.6812 73.5726 56.4316 73.5099 56.182H63.0396C63.0396 56.182 63.0396 57.2429 63.2277 58.3039C64.4816 64.8568 71.1275 71.5346 81.9113 71.5346C95.8927 71.5346 101.912 62.2356 101.912 51.5637V18.9861H91.0023ZM82.7263 44.7611C78.1495 44.7611 74.7012 41.5782 74.7012 36.5231C74.7012 31.4055 78.463 28.2851 82.7263 28.2851C86.9897 28.2851 90.6888 31.4055 90.6888 36.5231C90.6888 41.5782 87.3659 44.7611 82.7263 44.7611Z" fill="#A5410F"/>
<path d="M113.699 0.949829C117.46 0.949829 120.47 3.94547 120.47 7.6276C120.47 11.3097 117.46 14.3054 113.699 14.3054C110.062 14.3054 107.053 11.3097 107.053 7.6276C107.053 3.94547 110.062 0.949829 113.699 0.949829Z" fill="#A5410F"/>
<path d="M119.467 18.9861H108.056V56.1819H119.467V18.9861Z" fill="#A5410F"/>
<path d="M39.5282 2.01086H28.2428V21.9194C27.3024 20.484 24.5437 18.1124 18.1487 18.1124C7.55291 18.1124 0.0292969 26.4128 0.0292969 37.4592C0.0292969 48.9425 7.99178 56.9933 18.5248 56.9933C23.039 56.9933 26.8008 55.121 28.5563 52.6246V56.182H39.5282V2.01086ZM19.9669 46.8206C15.5154 46.8206 11.5655 43.7001 11.5655 37.5216C11.5655 31.3431 15.5154 28.3475 19.9669 28.3475C24.4183 28.3475 28.3682 31.3431 28.3682 37.5216C28.3682 43.7001 24.4183 46.8206 19.9669 46.8206Z" fill="#A5410F"/>
<path d="M244.108 34.7131L252.885 33.3401C254.892 33.0281 255.581 32.0919 255.581 30.7814C255.581 28.597 253.7 26.7248 250.064 26.7248C246.051 26.7248 243.92 29.4084 243.669 32.2168L233.763 30.2197C234.202 24.9149 239.155 17.8627 250.127 17.8627C262.227 17.8627 266.678 24.6028 266.678 32.2168V50.3778C266.678 53.311 267.055 55.745 267.117 56.1194H256.835C256.772 55.8074 256.459 54.4968 256.459 51.938C254.515 55.0585 250.879 57.1804 245.926 57.1804C237.713 57.1804 233.01 51.8132 233.01 45.8844C233.073 39.3314 237.963 35.5868 244.108 34.7131ZM255.644 41.5781V39.9555L248.559 41.0788C246.177 41.4533 244.358 42.5767 244.358 45.1979C244.358 47.1325 245.612 49.0048 248.81 49.0048C252.196 49.0048 255.644 47.3822 255.644 41.5781Z" fill="#506269"/>
<path d="M178.59 0.949836C182.351 0.949836 185.361 3.94547 185.361 7.62761C185.361 11.3097 182.351 14.3054 178.59 14.3054C174.953 14.3054 171.944 11.3097 171.944 7.62761C171.944 3.94547 174.953 0.949836 178.59 0.949836Z" fill="#506269"/>
<path d="M184.358 18.9861H172.947V56.1819H184.358V18.9861Z" fill="#506269"/>
<path d="M217.273 18.9861V22.9803C216.208 20.9832 213.01 18.2996 206.866 18.2996C196.646 18.2996 189.499 26.7249 189.499 36.5231C189.499 46.8206 196.96 54.6217 206.866 54.6217C212.32 54.6217 215.518 52.4374 216.897 50.4403V52.1254C216.897 58.8656 213.386 61.674 207.618 61.674C203.982 61.674 201.223 59.7393 200.095 56.9309C199.969 56.6812 199.844 56.4316 199.781 56.182H189.311C189.311 56.182 189.311 57.2429 189.499 58.3039C190.753 64.8568 197.399 71.5346 208.182 71.5346C222.164 71.5346 228.183 62.2356 228.183 51.5637V18.9861H217.273ZM208.997 44.7611C204.421 44.7611 200.972 41.5782 200.972 36.5231C200.972 31.4055 204.734 28.2851 208.997 28.2851C213.261 28.2851 216.96 31.4055 216.96 36.5231C216.96 41.5782 213.637 44.7611 208.997 44.7611Z" fill="#506269"/>
<path d="M165.8 2.01087H154.514V21.9194C153.574 20.484 150.815 18.1124 144.42 18.1124C133.824 18.1124 126.301 26.4128 126.301 37.4592C126.301 48.9425 134.263 56.9933 144.796 56.9933C149.31 56.9933 153.072 55.121 154.828 52.6246V56.182H165.8V2.01087ZM146.238 46.8206C141.787 46.8206 137.837 43.7001 137.837 37.5216C137.837 31.3431 141.787 28.3475 146.238 28.3475C150.69 28.3475 154.64 31.3431 154.64 37.5216C154.64 43.7001 150.69 46.8206 146.238 46.8206Z" fill="#506269"/>
</svg>
