<svg width="45" height="45" viewBox="0 0 45 45" fill="none" xmlns="http://www.w3.org/2000/svg">
<path d="M44.9141 22.2579C44.9141 26.6172 43.6214 30.8786 41.1995 34.5032C38.7776 38.1279 35.3352 40.9529 31.3077 42.6212C27.2803 44.2894 22.8485 44.7259 18.573 43.8754C14.2974 43.025 10.3701 40.9258 7.2876 37.8433C4.2051 34.7608 2.10589 30.8334 1.25543 26.5579C0.404968 22.2823 0.841457 17.8506 2.50969 13.8231C4.17793 9.79564 7.00299 6.35329 10.6276 3.93139C14.2523 1.50948 18.5137 0.216797 22.873 0.216797C28.7186 0.216797 34.3249 2.53897 38.4584 6.67248C42.5919 10.806 44.9141 16.4122 44.9141 22.2579ZM35.4679 20.6835H16.3394L25.1243 11.8561L22.873 9.66297L10.2781 22.2579L22.873 34.8528L25.1243 32.6062L16.3394 23.8322H35.4679V20.6835Z" fill="#D5963D"/>
</svg>
