<svg width="61" height="41" viewBox="0 0 61 41" fill="none" xmlns="http://www.w3.org/2000/svg">
<path d="M56.8942 1.70764C56.8942 2.398 57.4538 2.95764 58.1442 2.95764H59.3942C60.0846 2.95764 60.6442 2.398 60.6442 1.70764C60.6442 1.01729 60.0846 0.457645 59.3942 0.457645H58.1442C57.4538 0.457645 56.8942 1.01729 56.8942 1.70764Z" fill="#486A6F"/>
<path d="M20.6442 40.4576H26.7165L24.9487 38.6898C24.4799 38.221 23.844 37.9576 23.181 37.9576H20.6442C10.9792 37.9576 3.1442 30.1226 3.1442 20.4576C3.1442 10.7926 10.9792 2.95765 20.6442 2.95764H40.6442C50.3092 2.95764 58.1442 10.7926 58.1442 20.4576C58.1442 30.1226 50.3092 37.9576 40.6442 37.9576H33.1626C32.168 37.9576 31.2142 37.5625 30.5109 36.8593L28.4399 34.7882C27.2678 33.6161 25.678 32.9576 24.0204 32.9576H20.6442C13.7406 32.9576 8.1442 27.3612 8.1442 20.4576C8.1442 13.554 13.7406 7.95764 20.6442 7.95764H40.6442C47.5478 7.95764 53.1442 13.554 53.1442 20.4576C53.1442 27.3612 47.5478 32.9576 40.6442 32.9576H35.8403C34.8457 32.9576 33.8919 32.5625 33.1886 31.8593L31.1175 29.7882C29.9454 28.6161 28.3557 27.9576 26.6981 27.9576H20.6442C16.5021 27.9576 13.1442 24.5997 13.1442 20.4576C13.1442 16.3155 16.5021 12.9576 20.6442 12.9576H40.6442C44.7863 12.9576 48.1442 16.3155 48.1442 20.4576C48.1442 24.5492 44.8677 27.8756 40.7954 27.9561L40.7946 27.9576H38.9653C37.9707 27.9576 37.0169 27.5625 36.3136 26.8593L34.2425 24.7882C33.2808 23.8264 32.0379 23.2105 30.707 23.0204L30.6442 22.9576H20.6442C19.2635 22.9576 18.1442 21.8383 18.1442 20.4576C18.1442 19.0769 19.2635 17.9576 20.6442 17.9576H40.6442C42.0249 17.9576 43.1442 19.0769 43.1442 20.4576C43.1442 21.8383 42.0249 22.9576 40.6442 22.9576H35.6442L37.412 24.7254C37.8808 25.1942 38.5167 25.4576 39.1797 25.4576H40.6442C43.4056 25.4576 45.6442 23.219 45.6442 20.4576C45.6442 17.6962 43.4056 15.4576 40.6442 15.4576H20.6442C17.8828 15.4576 15.6442 17.6962 15.6442 20.4576C15.6442 23.219 17.8828 25.4576 20.6442 25.4576H29.8231C30.8177 25.4576 31.7715 25.8527 32.4748 26.5559L34.5459 28.627C35.718 29.7991 37.3077 30.4576 38.9653 30.4576H41.2692V30.4384C46.5009 30.1158 50.6442 25.7705 50.6442 20.4576C50.6442 14.9348 46.167 10.4576 40.6442 10.4576H20.6442C15.1214 10.4576 10.6442 14.9348 10.6442 20.4576C10.6442 25.9805 15.1214 30.4576 20.6442 30.4576H26.6981C27.6927 30.4576 28.6465 30.8527 29.3498 31.5559L31.4209 33.627C32.593 34.7991 34.1827 35.4576 35.8403 35.4576H40.6442C48.9285 35.4576 55.6442 28.7419 55.6442 20.4576C55.6442 12.1733 48.9285 5.45764 40.6442 5.45764H20.6442C12.3599 5.45764 5.6442 12.1733 5.6442 20.4576C5.6442 28.7419 12.3599 35.4576 20.6442 35.4576H24.0204C25.015 35.4576 25.9688 35.8527 26.6721 36.5559L28.7432 38.627C29.9153 39.7991 31.505 40.4576 33.1626 40.4576H40.6442C51.6899 40.4576 60.6442 31.5033 60.6442 20.4576C60.6442 9.41194 51.6899 0.457641 40.6442 0.457642L20.6442 0.457646C9.5985 0.457647 0.644195 9.41195 0.644196 20.4576C0.644197 31.5033 9.59851 40.4576 20.6442 40.4576Z" fill="#486A6F"/>
</svg>
