<svg width="218" height="41" viewBox="0 0 218 41" fill="none" xmlns="http://www.w3.org/2000/svg">
<path d="M122.175 29.9814H126.838V12.3928H122.175V29.9814ZM122.175 9.65002H126.838V5.46716H122.175V9.65002Z" fill="#486A6F"/>
<path d="M129.843 35.7414H134.506V27.9928H134.574C135.568 29.5014 137.18 30.4957 139.648 30.4957C144.174 30.4957 147.26 26.8957 147.26 21.2043C147.26 15.7185 144.277 11.9128 139.614 11.9128C137.214 11.9128 135.568 13.0443 134.437 14.5871H134.334V12.3928H129.843V35.7414ZM138.654 26.6214C135.877 26.6214 134.403 24.53 134.403 21.3414C134.403 18.1871 135.568 15.6843 138.483 15.6843C141.363 15.6843 142.528 18.0157 142.528 21.3414C142.528 24.6671 141.02 26.6214 138.654 26.6214Z" fill="#486A6F"/>
<path d="M156.561 30.4957C160.95 30.4957 163.967 28.37 163.967 24.8385C163.967 20.7243 160.71 19.9014 157.761 19.2843C155.258 18.77 152.927 18.6328 152.927 17.1243C152.927 15.8557 154.127 15.17 155.944 15.17C157.933 15.17 159.133 15.8557 159.338 17.7414H163.555C163.213 14.21 160.641 11.9128 156.013 11.9128C152.001 11.9128 148.847 13.73 148.847 17.5357C148.847 21.3757 151.933 22.2328 155.087 22.85C157.487 23.33 159.715 23.5014 159.715 25.1814C159.715 26.4157 158.55 27.2043 156.493 27.2043C154.401 27.2043 152.961 26.3128 152.653 24.29H148.333C148.607 28.0271 151.453 30.4957 156.561 30.4957Z" fill="#486A6F"/>
<path d="M181.67 29.9814V12.3928H177.007V22.5414C177.007 24.8728 175.67 26.5185 173.476 26.5185C171.487 26.5185 170.562 25.3871 170.562 23.33V12.3928H165.933V24.1185C165.933 27.9585 168.127 30.4614 172.036 30.4614C174.505 30.4614 175.876 29.5357 177.076 27.9243H177.179V29.9814H181.67Z" fill="#486A6F"/>
<path d="M184.686 29.9814H189.349V19.7643C189.349 17.4328 190.618 15.9243 192.504 15.9243C194.218 15.9243 195.212 16.9528 195.212 18.9414V29.9814H199.875V19.7643C199.875 17.4328 201.075 15.9243 203.029 15.9243C204.744 15.9243 205.738 16.9528 205.738 18.9414V29.9814H210.401V18.1528C210.401 14.3128 208.309 11.9128 204.606 11.9128C202.378 11.9128 200.526 13.0785 199.326 14.9985H199.258C198.401 13.1471 196.618 11.9128 194.389 11.9128C191.955 11.9128 190.241 13.1471 189.281 14.7585H189.178V12.3928H184.686V29.9814Z" fill="#486A6F"/>
<path d="M0.644196 29.9814H5.30705V5.46716H0.644196V29.9814Z" fill="#486A6F"/>
<path d="M16.7084 30.4957C22.1598 30.4957 25.8969 26.45 25.8969 21.2043C25.8969 15.9585 22.1598 11.9128 16.7084 11.9128C11.2569 11.9128 7.51982 15.9585 7.51982 21.2043C7.51982 26.45 11.2569 30.4957 16.7084 30.4957ZM16.7084 26.93C13.8284 26.93 12.2512 24.6328 12.2512 21.2043C12.2512 17.7757 13.8284 15.4443 16.7084 15.4443C19.5541 15.4443 21.1655 17.7757 21.1655 21.2043C21.1655 24.6328 19.5541 26.93 16.7084 26.93Z" fill="#486A6F"/>
<path d="M35.813 35.9814C38.4187 35.9814 40.6816 35.3643 42.1558 33.9928C43.4587 32.7928 44.2473 31.1128 44.2473 28.6443V12.3928H39.7559V14.2443H39.6873C38.6244 12.77 37.013 11.9128 34.8187 11.9128C30.3616 11.9128 27.2073 15.2728 27.2073 20.5185C27.2073 25.8328 31.0473 28.9185 34.9559 28.9185C37.1844 28.9185 38.5216 28.0271 39.5501 26.8614H39.653V28.7814C39.653 31.1814 38.3844 32.45 35.7444 32.45C33.5844 32.45 32.5901 31.5928 32.213 30.4957H27.5844C28.0644 33.9243 31.013 35.9814 35.813 35.9814ZM35.7444 25.1814C33.3444 25.1814 31.7673 23.4328 31.7673 20.45C31.7673 17.5014 33.3444 15.65 35.7101 15.65C38.5216 15.65 39.893 17.8443 39.893 20.4157C39.893 23.0214 38.693 25.1814 35.7444 25.1814Z" fill="#486A6F"/>
<path d="M55.5811 30.4957C61.0325 30.4957 64.7697 26.45 64.7697 21.2043C64.7697 15.9585 61.0325 11.9128 55.5811 11.9128C50.1297 11.9128 46.3925 15.9585 46.3925 21.2043C46.3925 26.45 50.1297 30.4957 55.5811 30.4957ZM55.5811 26.93C52.7011 26.93 51.124 24.6328 51.124 21.2043C51.124 17.7757 52.7011 15.4443 55.5811 15.4443C58.4268 15.4443 60.0383 17.7757 60.0383 21.2043C60.0383 24.6328 58.4268 26.93 55.5811 26.93Z" fill="#486A6F"/>
<path d="M212.095 9.50526C212.095 8.71628 212.735 8.07669 213.524 8.07669H216.381C217.17 8.07669 217.81 8.71628 217.81 9.50526C217.81 10.2942 217.17 10.9338 216.381 10.9338H213.524C212.735 10.9338 212.095 10.2942 212.095 9.50526Z" fill="#486A6F"/>
<path fill-rule="evenodd" clip-rule="evenodd" d="M93.0477 0.457642C104.093 0.457642 113.048 9.41195 113.048 20.4576C113.048 31.5033 104.093 40.4576 93.0477 40.4576C82.002 40.4576 73.0477 31.5033 73.0477 20.4576C73.0477 9.41195 82.002 0.457642 93.0477 0.457642ZM92.3248 1.95423C90.0431 2.27533 87.8705 4.10872 86.184 7.17504C85.6948 8.06447 85.2534 9.0471 84.8688 10.1081C87.162 9.53181 89.6811 9.19206 92.3248 9.13951V1.95423ZM83.1784 10.5884C83.6568 9.08722 84.2419 7.70604 84.9172 6.47829C85.7532 4.95823 86.7454 3.64559 87.8633 2.63741C81.7844 4.40287 76.9929 9.19443 75.2274 15.2733C76.2356 14.1554 77.5482 13.1632 79.0683 12.3272C80.2961 11.6519 81.6772 11.0667 83.1784 10.5884ZM82.6981 12.2787C82.1218 14.5719 81.7821 17.091 81.7295 19.7347H74.5442C74.8653 17.453 76.6987 15.2804 79.7651 13.594C80.6545 13.1048 81.6371 12.6634 82.6981 12.2787ZM83.1756 19.7347C83.2353 16.8496 83.6507 14.141 84.3379 11.7478C86.7311 11.0606 89.4397 10.6452 92.3248 10.5855V13.7084C91.2485 16.4638 89.0533 18.6588 86.2978 19.7347H83.1756ZM81.7295 21.1805H74.5442C74.8653 23.4622 76.6987 25.6347 79.7651 27.3212C80.6545 27.8104 81.6371 28.2518 82.6981 28.6365C82.1218 26.3433 81.7821 23.8242 81.7295 21.1805ZM84.3379 29.1674C83.6507 26.7742 83.2353 24.0656 83.1756 21.1805H86.2978C89.0533 22.2564 91.2485 24.4514 92.3248 27.2068V30.3297C89.4397 30.27 86.7311 29.8546 84.3379 29.1674ZM83.1784 30.3268C81.6772 29.8485 80.2961 29.2633 79.0683 28.588C77.5482 27.752 76.2356 26.7598 75.2274 25.6419C76.9929 31.7208 81.7844 36.5124 87.8633 38.2778C86.7454 37.2696 85.7532 35.957 84.9172 34.4369C84.2419 33.2092 83.6568 31.828 83.1784 30.3268ZM92.3248 38.961C90.0431 38.6399 87.8705 36.8065 86.184 33.7402C85.6948 32.8508 85.2534 31.8681 84.8688 30.8072C87.162 31.3834 89.6811 31.7232 92.3248 31.7757V38.961ZM98.232 38.2778C99.3499 37.2696 100.342 35.957 101.178 34.4369C101.853 33.2092 102.439 31.828 102.917 30.3268C104.418 29.8485 105.799 29.2633 107.027 28.588C108.547 27.752 109.86 26.7598 110.868 25.6419C109.102 31.7208 104.311 36.5124 98.232 38.2778ZM101.227 30.8072C100.842 31.8681 100.4 32.8508 99.911 33.7402C98.2248 36.8065 96.0522 38.6399 93.7705 38.961V31.7757C96.4142 31.7232 98.9333 31.3834 101.227 30.8072ZM103.397 28.6365C104.458 28.2518 105.441 27.8104 106.33 27.3212C109.397 25.6348 111.23 23.4622 111.551 21.1805H104.366C104.313 23.8242 103.973 26.3433 103.397 28.6365ZM102.92 21.1805C102.86 24.0656 102.445 26.7742 101.757 29.1674C99.3642 29.8546 96.6556 30.27 93.7705 30.3297V27.2091C94.8465 24.4527 97.0422 22.2567 99.7984 21.1805H102.92ZM104.366 19.7347H111.551C111.23 17.453 109.397 15.2804 106.33 13.594C105.441 13.1048 104.458 12.6634 103.397 12.2787C103.973 14.5719 104.313 17.091 104.366 19.7347ZM101.757 11.7478C102.445 14.141 102.86 16.8496 102.92 19.7347H99.7985C97.0422 18.6585 94.8465 16.4625 93.7705 13.7061V10.5855C96.6556 10.6452 99.3642 11.0606 101.757 11.7478ZM102.917 10.5884C104.418 11.0667 105.799 11.6519 107.027 12.3272C108.547 13.1632 109.86 14.1554 110.868 15.2733C109.102 9.19443 104.311 4.40287 98.232 2.63741C99.3499 3.64559 100.342 4.95823 101.178 6.47829C101.853 7.70604 102.439 9.08722 102.917 10.5884ZM93.7705 1.95423C96.0522 2.27533 98.2248 4.10872 99.911 7.17504C100.4 8.06448 100.842 9.0471 101.227 10.1081C98.9333 9.53181 96.4142 9.19206 93.7705 9.13951V1.95423Z" fill="#486A6F"/>
</svg>
