<svg width="79" height="31" viewBox="0 0 79 31" fill="none" xmlns="http://www.w3.org/2000/svg">
<path d="M19.3248 0.457642C16.2787 0.457642 13.3574 1.66769 11.2035 3.8216L4.17402 10.851C2.02011 13.0049 0.810059 15.9262 0.810059 18.9723C0.810059 25.3155 5.9522 30.4576 12.2954 30.4576C15.3415 30.4576 18.2628 29.2475 20.4167 27.0936L25.279 22.2313C25.279 22.2312 25.2791 22.2314 25.279 22.2313L39.4461 8.06424C40.4748 7.03555 41.87 6.45764 43.3248 6.45764C45.7604 6.45764 47.8253 8.04505 48.5412 10.2417L53.0123 5.7706C50.9726 2.57598 47.3961 0.457642 43.3248 0.457642C40.2787 0.457642 37.3574 1.66769 35.2035 3.8216L16.1741 22.851C15.1454 23.8797 13.7502 24.4576 12.2954 24.4576C9.2659 24.4576 6.81006 22.0018 6.81006 18.9723C6.81006 17.5175 7.38797 16.1223 8.41666 15.0936L15.4461 8.06424C16.4748 7.03555 17.87 6.45764 19.3248 6.45764C21.7605 6.45764 23.8253 8.04512 24.5412 10.2419L29.0124 5.77071C26.9727 2.57604 23.3962 0.457642 19.3248 0.457642Z" fill="#486A6F"/>
<path d="M40.1741 22.851C39.1454 23.8797 37.7502 24.4576 36.2954 24.4576C33.8601 24.4576 31.7954 22.8706 31.0793 20.6743L26.6083 25.1453C28.6481 28.3395 32.2244 30.4576 36.2954 30.4576C39.3415 30.4576 42.2628 29.2475 44.4167 27.0936L63.4461 8.06424C64.4748 7.03555 65.87 6.45764 67.3248 6.45764C70.3543 6.45764 72.8101 8.91348 72.8101 11.9429C72.8101 13.3977 72.2322 14.7929 71.2035 15.8216L64.1741 22.851C63.1454 23.8797 61.7502 24.4576 60.2954 24.4576C57.8599 24.4576 55.7951 22.8703 55.0791 20.6738L50.6081 25.1449C52.6478 28.3394 56.2242 30.4576 60.2954 30.4576C63.3415 30.4576 66.2628 29.2475 68.4167 27.0936L75.4461 20.0642C77.6 17.9103 78.8101 14.989 78.8101 11.9429C78.8101 5.59978 73.668 0.457642 67.3248 0.457642C64.2787 0.457642 61.3574 1.66769 59.2035 3.8216L40.1741 22.851Z" fill="#486A6F"/>
</svg>
