<svg width="96" height="46" viewBox="0 0 96 46" fill="none" xmlns="http://www.w3.org/2000/svg">
<path d="M0.810059 27.9742H3.64298V41.8649H0.810059V27.9742Z" fill="#486A6F"/>
<path d="M5.28606 37.1056C5.28419 36.1079 5.57834 35.132 6.13129 34.3015C6.68424 33.471 7.47113 32.8232 8.39239 32.4401C9.31359 32.057 10.3278 31.9558 11.3066 32.1493C12.2854 32.3428 13.1848 32.8223 13.8909 33.5272C14.5971 34.232 15.0783 35.1305 15.2736 36.1089C15.469 37.0873 15.3697 38.1017 14.9883 39.0237C14.6069 39.9456 13.9606 40.7337 13.1311 41.2882C12.3017 41.8428 11.3264 42.1387 10.3287 42.1387C9.66509 42.1463 9.00679 42.0214 8.39219 41.7712C7.77761 41.5211 7.21912 41.1508 6.74948 40.682C6.27984 40.2133 5.90849 39.6555 5.6572 39.0413C5.40591 38.4272 5.27973 37.7691 5.28606 37.1056ZM12.5194 37.1056C12.5083 36.6749 12.3704 36.257 12.123 35.9043C11.8756 35.5515 11.5297 35.2796 11.1285 35.1224C10.7273 34.9652 10.2887 34.9299 9.86759 35.0207C9.44639 35.1115 9.06139 35.3245 8.76059 35.633C8.45989 35.9415 8.25679 36.3319 8.17673 36.7553C8.09668 37.1786 8.14326 37.6162 8.31059 38.0132C8.47799 38.4102 8.75869 38.7491 9.11759 38.9874C9.47659 39.2257 9.89779 39.3529 10.3287 39.353C10.6234 39.3613 10.9167 39.3084 11.19 39.1976C11.4633 39.0868 11.7107 38.9206 11.9166 38.7094C12.1224 38.4982 12.2823 38.2467 12.386 37.9707C12.4898 37.6946 12.5352 37.4001 12.5194 37.1056Z" fill="#486A6F"/>
<path d="M26.7595 32.3463V41.3927C26.7595 44.5939 24.2571 45.9443 21.7264 45.9443C20.8365 46.0105 19.9455 45.8305 19.151 45.4241C18.3565 45.0177 17.6892 44.4005 17.2221 43.6402L19.6584 42.2332C19.8517 42.6228 20.1576 42.9455 20.5364 43.1593C20.9152 43.3731 21.3495 43.4683 21.7831 43.4324C22.0683 43.48 22.3607 43.4614 22.6377 43.378C22.9147 43.2947 23.1688 43.1489 23.3805 42.9518C23.5921 42.7547 23.7557 42.5116 23.8586 42.2413C23.9615 41.971 24.0009 41.6807 23.9738 41.3927V40.5145C23.6408 40.9243 23.2158 41.2498 22.7335 41.4647C22.2512 41.6796 21.725 41.7779 21.1976 41.7516C19.9153 41.7516 18.6856 41.2422 17.7788 40.3355C16.8721 39.4288 16.3627 38.199 16.3627 36.9167C16.3627 35.6344 16.8721 34.4047 17.7788 33.498C18.6856 32.5913 19.9153 32.0819 21.1976 32.0819C21.7247 32.0578 22.2501 32.1571 22.7321 32.3718C23.2141 32.5866 23.6393 32.9109 23.9738 33.3189V32.3746L26.7595 32.3463ZM23.9738 36.9167C23.9927 36.4575 23.8737 36.0031 23.6323 35.6119C23.3908 35.2208 23.0379 34.9108 22.6189 34.7219C22.1999 34.5329 21.7339 34.4736 21.2809 34.5516C20.8279 34.6295 20.4086 34.8412 20.0769 35.1593C19.7451 35.4775 19.5161 35.8876 19.4193 36.3369C19.3224 36.7862 19.3622 37.2543 19.5335 37.6808C19.7048 38.1074 19.9997 38.4729 20.3804 38.7305C20.7611 38.9882 21.2101 39.126 21.6697 39.1264C21.9698 39.1476 22.2709 39.1058 22.5537 39.0035C22.8366 38.9012 23.0949 38.7409 23.312 38.5327C23.529 38.3245 23.7001 38.0731 23.8141 37.7948C23.9281 37.5165 23.9825 37.2174 23.9738 36.9167Z" fill="#486A6F"/>
<path d="M28.3932 37.1056C28.3913 36.1079 28.6855 35.132 29.2384 34.3015C29.7914 33.471 30.5783 32.8232 31.4995 32.4401C32.4207 32.057 33.4349 31.9558 34.4137 32.1493C35.3925 32.3428 36.2919 32.8223 36.9981 33.5272C37.7042 34.232 38.1854 35.1305 38.3808 36.1089C38.5761 37.0873 38.4768 38.1017 38.0954 39.0237C37.714 39.9456 37.0677 40.7337 36.2383 41.2882C35.4088 41.8428 34.4335 42.1387 33.4358 42.1387C32.7723 42.1463 32.1139 42.0214 31.4993 41.7712C30.8847 41.5211 30.3262 41.1508 29.8566 40.682C29.387 40.2133 29.0156 39.6555 28.7643 39.0413C28.513 38.4272 28.3868 37.7691 28.3932 37.1056ZM35.6266 37.1056C35.6154 36.6749 35.4775 36.257 35.2301 35.9043C34.9827 35.5515 34.6368 35.2796 34.2356 35.1224C33.8345 34.9652 33.3959 34.9299 32.9747 35.0207C32.5535 35.1115 32.1685 35.3245 31.8677 35.633C31.567 35.9415 31.3639 36.3319 31.2838 36.7553C31.2038 37.1786 31.2504 37.6162 31.4177 38.0132C31.5851 38.4102 31.8658 38.7491 32.2247 38.9874C32.5837 39.2257 33.0049 39.3529 33.4358 39.353C33.729 39.3586 34.0202 39.3038 34.2913 39.1918C34.5623 39.0798 34.8074 38.9132 35.0112 38.7023C35.215 38.4915 35.3731 38.2408 35.4758 37.9661C35.5784 37.6914 35.6233 37.3984 35.6077 37.1056H35.6266Z" fill="#486A6F"/>
<path d="M39.791 29.7967C39.791 29.4568 39.8918 29.1245 40.0806 28.8419C40.2695 28.5593 40.5379 28.339 40.8519 28.2089C41.166 28.0788 41.5115 28.0448 41.8449 28.1111C42.1783 28.1774 42.4845 28.3411 42.7249 28.5814C42.9653 28.8218 43.1289 29.128 43.1952 29.4614C43.2616 29.7948 43.2275 30.1404 43.0975 30.4544C42.9674 30.7684 42.7471 31.0369 42.4645 31.2257C42.1818 31.4145 41.8496 31.5153 41.5096 31.5153C41.0546 31.5129 40.6189 31.331 40.2971 31.0092C39.9753 30.6875 39.7935 30.2518 39.791 29.7967ZM40.0837 32.3463H42.9166V41.8649H40.0837V32.3463Z" fill="#486A6F"/>
<path d="M55.268 37.1056C55.3023 37.7348 55.2119 38.3646 55.0019 38.9587C54.7918 39.5528 54.4664 40.0995 54.0442 40.5673C53.622 41.0351 53.1115 41.4148 52.542 41.6845C51.9725 41.9542 51.3553 42.1086 50.7259 42.1388C50.1975 42.1641 49.6699 42.0733 49.1805 41.8726C48.691 41.6719 48.2515 41.3663 47.893 40.9773V45.6988H45.0601V32.3463H47.893V33.2434C48.2515 32.8544 48.691 32.5488 49.1805 32.3481C49.6699 32.1474 50.1975 32.0566 50.7259 32.0819C51.3545 32.1121 51.9709 32.2662 52.5397 32.5353C53.1086 32.8045 53.6187 33.1833 54.0407 33.6501C54.4628 34.1169 54.7884 34.6624 54.999 35.2554C55.2097 35.8484 55.3011 36.4772 55.268 37.1056ZM52.4351 37.1056C52.4239 36.6624 52.2829 36.2322 52.0296 35.8683C51.7763 35.5045 51.4219 35.2228 51.0102 35.0584C50.5985 34.8939 50.1475 34.8538 49.7133 34.9431C49.279 35.0323 48.8804 35.247 48.5669 35.5605C48.2534 35.874 48.0388 36.2725 47.9495 36.7068C47.8603 37.1411 47.9004 37.592 48.0648 38.0037C48.2293 38.4154 48.5109 38.7699 48.8748 39.0231C49.2387 39.2764 49.6689 39.4174 50.1121 39.4286C50.4214 39.4483 50.7313 39.4015 51.0211 39.2915C51.3108 39.1814 51.5736 39.0106 51.7919 38.7906C52.0101 38.5705 52.1788 38.3063 52.2865 38.0157C52.3941 37.7251 52.4384 37.4148 52.4162 37.1056H52.4351Z" fill="#486A6F"/>
<path d="M64.0879 39.0131C64.0879 41.2039 62.1993 42.1387 60.1218 42.1387C59.2919 42.2122 58.459 42.0356 57.7303 41.6317C57.0017 41.2278 56.4105 40.6151 56.033 39.8724L58.5071 38.4654C58.6075 38.8089 58.8225 39.1077 59.1162 39.3121C59.41 39.5165 59.7648 39.6143 60.1218 39.5891C60.8112 39.5891 61.1511 39.3719 61.1511 38.9942C61.1511 37.946 56.4296 38.5032 56.4296 35.217C56.4296 33.1395 58.186 32.0913 60.2068 32.0913C60.9525 32.0687 61.6907 32.2458 62.3449 32.6045C62.9991 32.9631 63.5454 33.4902 63.9274 34.131L61.4439 35.4342C61.3342 35.1848 61.1544 34.9726 60.9264 34.8234C60.6984 34.6742 60.4321 34.5944 60.1596 34.5937C59.6686 34.5937 59.3664 34.7826 59.3664 35.132C59.4042 36.2179 64.0879 35.4908 64.0879 39.0131Z" fill="#486A6F"/>
<path d="M74.513 32.3463V41.8649H71.68V40.9773C71.3505 41.3717 70.9323 41.6825 70.4596 41.8844C69.987 42.0863 69.4732 42.1734 68.9604 42.1388C67.0718 42.1388 65.4004 40.7695 65.4004 38.1916V32.3463H68.2333V37.7761C68.2084 38.0075 68.2354 38.2415 68.3122 38.4612C68.389 38.6809 68.5137 38.8807 68.6774 39.0462C68.841 39.2117 69.0395 39.3386 69.2583 39.4178C69.4771 39.4971 69.7109 39.5265 69.9425 39.5042C70.9813 39.5042 71.7084 38.8998 71.7084 37.5495V32.3463H74.513Z" fill="#486A6F"/>
<path d="M90.8872 36.029V41.8648H88.0542V36.2746C88.0542 35.3303 87.5915 34.707 86.685 34.707C85.7785 34.707 85.193 35.3775 85.193 36.5012V41.8648H82.3601V36.2746C82.3601 35.3303 81.9068 34.707 80.9908 34.707C80.0749 34.707 79.5083 35.3775 79.5083 36.5012V41.8648H76.6754V32.3463H79.5083V33.2245C79.8044 32.8366 80.1927 32.5289 80.638 32.3294C81.0833 32.1298 81.5714 32.0447 82.0579 32.0819C82.5465 32.0581 83.033 32.1614 83.4698 32.3814C83.9067 32.6015 84.2791 32.931 84.5509 33.3378C84.8669 32.9125 85.2856 32.5742 85.7678 32.3546C86.25 32.135 86.78 32.0411 87.3082 32.0819C89.4613 32.0819 90.8872 33.6494 90.8872 36.029Z" fill="#486A6F"/>
<path d="M93.3047 32.2897C94.4729 32.2897 95.4199 31.3426 95.4199 30.1744C95.4199 29.0062 94.4729 28.0592 93.3047 28.0592C92.1365 28.0592 91.1894 29.0062 91.1894 30.1744C91.1894 31.3426 92.1365 32.2897 93.3047 32.2897Z" fill="#486A6F"/>
<path d="M32.8692 20.7692C38.34 20.7692 42.7749 16.3342 42.7749 10.8634C42.7749 5.3926 38.34 0.957642 32.8692 0.957642C27.3984 0.957642 22.9634 5.3926 22.9634 10.8634C22.9634 16.3342 27.3984 20.7692 32.8692 20.7692Z" fill="#486A6F"/>
<path d="M55.0131 20.7692C60.4839 20.7692 64.9188 16.3342 64.9188 10.8634C64.9188 5.3926 60.4839 0.957642 55.0131 0.957642C49.5423 0.957642 45.1073 5.3926 45.1073 10.8634C45.1073 16.3342 49.5423 20.7692 55.0131 20.7692Z" fill="#486A6F"/>
<path d="M20.631 0.957642H0.828948V20.7597H20.631V0.957642Z" fill="#486A6F"/>
</svg>
